<?xml version="1.0" encoding="UTF-8"?>
<!DOCTYPE svg PUBLIC "-//W3C//DTD SVG 1.1//EN" "http://www.w3.org/Graphics/SVG/1.1/DTD/svg11.dtd">
<!-- Creator: CorelDRAW -->
<svg xmlns="http://www.w3.org/2000/svg" xml:space="preserve" width="1.66663in" height="1.4288in" version="1.1" style="shape-rendering:geometricPrecision; text-rendering:geometricPrecision; image-rendering:optimizeQuality; fill-rule:evenodd; clip-rule:evenodd"
viewBox="0 0 259.59 222.54"
 xmlns:xlink="http://www.w3.org/1999/xlink"
 xmlns:xodm="http://www.corel.com/coreldraw/odm/2003">
 <defs>
  <style type="text/css">
   <![CDATA[
    .fil0 {fill:#00A859}
   ]]>
  </style>
 </defs>
 <g id="Layer_x0020_1">
  <metadata id="CorelCorpID_0Corel-Layer"/>
  <path class="fil0" d="M204 176.12l37 0.05 0.01 27.85 -36.81 -0.06 -0.19 -27.83zm-185.24 -0.01l37.02 0.06 -0.01 27.83 -36.86 -0.06 -0.15 -27.83zm92.64 0.21l36.81 -0.16 0.16 27.86 -36.99 -0.08 0.03 -27.62zm-0.01 -157.63l37.02 0.08 -0.04 28.04c-2.58,-0.56 -34.31,-0.55 -36.92,0l-0.05 -28.12zm-18.35 46.29l27.48 0.04 0.05 37.05 -92.55 -0.05 0.01 55.65c-6.52,0.25 -22.38,-0.91 -27.5,0.25 -0.97,2.57 -0.28,56.7 -0.35,64.62l74.18 -0.03 -0.01 -64.59c-3.34,-0.64 -22.31,-0.14 -27.73,-0.3l-0.1 -36.86 74.08 -0.09 -0.03 37.05 -27.8 -0.06 0.07 64.82 74.16 0.03 -0.03 -64.88 -27.72 0.04 -0.02 -37.05 74.11 0.04 -0.05 37 -27.81 0 -0.01 64.88 74.14 -0.04 -0.02 -64.81 -27.78 -0.01 -0.04 -55.49 -92.59 -0.18 0.05 -37.02 27.92 0.03 -0.18 -64.61c-2.98,-0.53 -48.61,-0.33 -55.39,-0.25 -4.43,0.05 -14.89,-0.53 -18.53,0.24 -0.51,2.45 -0.5,61.71 0.01,64.57z"/>
 </g>
</svg>
