<?xml version="1.0" encoding="UTF-8"?>
<!DOCTYPE svg PUBLIC "-//W3C//DTD SVG 1.1//EN" "http://www.w3.org/Graphics/SVG/1.1/DTD/svg11.dtd">
<!-- Creator: CorelDRAW -->
<svg xmlns="http://www.w3.org/2000/svg" xml:space="preserve" width="1.66663in" height="1.4288in" version="1.1" style="shape-rendering:geometricPrecision; text-rendering:geometricPrecision; image-rendering:optimizeQuality; fill-rule:evenodd; clip-rule:evenodd"
viewBox="0 0 193.54 165.92"
 xmlns:xlink="http://www.w3.org/1999/xlink"
 xmlns:xodm="http://www.corel.com/coreldraw/odm/2003">
 <defs>
  <style type="text/css">
   <![CDATA[
    .fil0 {fill:#ED3237}
   ]]>
  </style>
 </defs>
 <g id="Layer_x0020_1">
  <metadata id="CorelCorpID_0Corel-Layer"/>
  <path class="fil0" d="M152.09 131.31l27.58 0.04 0.01 20.76 -27.44 -0.05 -0.14 -20.75zm-138.11 -0l27.6 0.05 -0.01 20.75 -27.48 -0.04 -0.11 -20.75zm69.07 0.15l27.44 -0.12 0.12 20.77 -27.58 -0.06 0.02 -20.59zm-0.01 -117.52l27.6 0.06 -0.03 20.91c-1.92,-0.42 -25.58,-0.41 -27.53,0l-0.04 -20.96zm-13.68 34.51l20.49 0.03 0.03 27.62 -69 -0.04 0.01 41.49c-4.86,0.18 -16.69,-0.68 -20.5,0.19 -0.72,1.92 -0.21,42.27 -0.26,48.17l55.3 -0.02 -0.01 -48.16c-2.49,-0.48 -16.64,-0.11 -20.67,-0.22l-0.08 -27.48 55.23 -0.06 -0.02 27.62 -20.73 -0.04 0.05 48.33 55.29 0.02 -0.03 -48.37 -20.67 0.03 -0.02 -27.62 55.25 0.03 -0.04 27.58 -20.74 0 -0.01 48.37 55.28 -0.03 -0.01 -48.32 -20.71 -0.01 -0.03 -41.37 -69.03 -0.14 0.03 -27.6 20.81 0.02 -0.13 -48.17c-2.22,-0.4 -36.24,-0.25 -41.29,-0.19 -3.3,0.04 -11.1,-0.39 -13.82,0.18 -0.38,1.83 -0.37,46.01 0.01,48.14z"/>
 </g>
</svg>
