<?xml version="1.0" encoding="UTF-8"?>
<!DOCTYPE svg PUBLIC "-//W3C//DTD SVG 1.1//EN" "http://www.w3.org/Graphics/SVG/1.1/DTD/svg11.dtd">
<!-- Creator: CorelDRAW -->
<svg xmlns="http://www.w3.org/2000/svg" xml:space="preserve" width="2.55239in" height="3.34718in" version="1.1" style="shape-rendering:geometricPrecision; text-rendering:geometricPrecision; image-rendering:optimizeQuality; fill-rule:evenodd; clip-rule:evenodd"
viewBox="0 0 462.16 606.07"
 xmlns:xlink="http://www.w3.org/1999/xlink"
 xmlns:xodm="http://www.corel.com/coreldraw/odm/2003">
 <defs>
  <style type="text/css">
   <![CDATA[
    .str0 {stroke:black;stroke-width:2.52;stroke-miterlimit:2.61313}
    .fil0 {fill:#282829}
   ]]>
  </style>
 </defs>
 <g id="Layer_x0020_1">
  <metadata id="CorelCorpID_0Corel-Layer"/>
  <g id="_3036808022464">
   <path class="fil0 str0" d="M29.38 565.41l0.01 -535.69 235.86 -0.01c-1.89,7.49 -0.76,120.66 -0.76,138.5 0,18.38 -2.93,29.86 17.99,29.86 47.65,0 103.65,-0.91 150.29,0.19 0.04,125.14 -0.86,253.69 0.13,378.4l-403.52 0.08 -0.01 -11.33zm263.11 -515.7l120.4 120.01 -119.98 0.33 -0.42 -120.34zm-290.51 544.07c2.55,11.51 11.73,10.76 24.18,10.76l397.2 0c9.28,0 23.93,1.53 31.59,-2.54 7.46,-3.97 5.58,-19.11 5.58,-28.76l0 -362.96c0,-36.75 4.35,-28.43 -16.87,-49.65l-132.57 -132.56c-22.34,-22.34 -20.59,-26.18 -41.33,-26.17l-197.62 0c-13.73,0 -55.69,-2.54 -64.92,2.57 -7.42,4.11 -5.52,19.15 -5.52,28.73l0 296.44c0,13.91 -1.18,257.57 0.27,264.15z"/>
   <path class="fil0 str0" d="M64.97 389.31c1.67,15.9 17.92,12.71 33.59,12.71l270.02 0c15.24,0 30.64,1.37 28.68,-16.54 -1.71,-15.59 -18.73,-12.65 -33.57,-12.65l-270.02 0c-14.73,0 -30.54,-1.05 -28.7,16.48z"/>
   <path class="fil0 str0" d="M65.04 470.51c1.91,15.56 18.95,12.29 33.52,12.29l270.02 0c14.51,0 30.17,1.11 28.76,-16.2 -1.3,-15.95 -18.03,-12.71 -33.65,-12.71l-270.02 0c-15.14,0 -30.86,-1.5 -28.63,16.63z"/>
   <path class="fil0 str0" d="M65.43 310.06c1.36,5.51 5.68,10.17 11.68,10.76 6.39,0.62 15.72,0.09 22.42,0.09l270.02 0c14.06,0 30.99,0.54 27.5,-17.48 -2.74,-14.1 -20.54,-11.17 -34.35,-11.17l-270.02 -0c-6.21,-0 -32.39,-2.94 -27.26,17.79z"/>
  </g>
 </g>
</svg>
