<?xml version="1.0" encoding="UTF-8"?>
<!DOCTYPE svg PUBLIC "-//W3C//DTD SVG 1.1//EN" "http://www.w3.org/Graphics/SVG/1.1/DTD/svg11.dtd">
<!-- Creator: CorelDRAW -->
<svg xmlns="http://www.w3.org/2000/svg" xml:space="preserve" width="1.66667in" height="1.66667in" version="1.1" style="shape-rendering:geometricPrecision; text-rendering:geometricPrecision; image-rendering:optimizeQuality; fill-rule:evenodd; clip-rule:evenodd"
viewBox="0 0 339.31 339.31"
 xmlns:xlink="http://www.w3.org/1999/xlink"
 xmlns:xodm="http://www.corel.com/coreldraw/odm/2003">
 <defs>
  <style type="text/css">
   <![CDATA[
    .fil0 {fill:black}
    .fil1 {fill:#5D5D5D}
   ]]>
  </style>
 </defs>
 <g id="Layer_x0020_1">
  <metadata id="CorelCorpID_0Corel-Layer"/>
  <g id="_3036795004480">
   <path class="fil0" d="M170.02 23.75c9.73,0 19.22,0.85 28.73,2.89 10.96,2.35 20.93,5.7 31.17,10.11l4.65 2.16c0.08,0.04 0.17,0.09 0.24,0.13l3.97 2.13c1.02,0.55 2.14,1.16 3.11,1.68 11.14,5.96 22.69,15.12 31.22,23.89 5.92,6.09 10.91,12.11 16.57,19.92 16.46,22.69 25.99,53.41 25.88,83.35 -0.08,22.13 -5.01,41.99 -12.93,60.04 -2.82,6.43 -6.18,12.06 -9.63,17.57l-7.39 10.68c-1.41,1.81 -2.68,3.61 -4.07,5.17 -2.87,3.23 -5.42,6.31 -8.77,9.65l-6.9 6.38c-7.68,6.16 -15.35,12.6 -24.22,17.07 -4.23,2.13 -7.52,4.29 -12.1,6.27 -39.81,17.27 -80.72,16.73 -120.07,-0.27 -12.5,-5.4 -23.61,-12.82 -33.48,-21.04 -10.52,-8.76 -20.75,-19.74 -28.04,-31.32l-3.73 -5.96c-5.55,-9.39 -10.03,-19.34 -13.52,-29.96 -0.03,-0.09 -0.06,-0.19 -0.09,-0.28l-5.9 -27.42c-2.77,-21.56 0.33,-44.32 6.82,-63.94l6.03 -15.01c0.04,-0.09 0.08,-0.18 0.11,-0.27l1.19 -2.49c0.29,-0.61 0.39,-0.83 0.72,-1.41l4.06 -7.41c0.31,-0.48 -0.04,0.09 0.44,-0.67l2.19 -3.75c3.63,-5.85 7.77,-11.14 12.15,-16.27l20.11 -19.69c0.64,-0.51 0.82,-0.59 1.28,-0.92 6.3,-4.55 7.37,-5.67 15.1,-10.39 0.07,-0.05 0.17,-0.1 0.24,-0.15 0.07,-0.05 0.16,-0.1 0.23,-0.15l5.24 -2.88c0.07,-0.04 0.17,-0.08 0.24,-0.12l5 -2.66c0.08,-0.04 0.18,-0.08 0.25,-0.11 0.1,-0.05 0.41,-0.19 0.51,-0.23 1.11,-0.51 1.92,-0.83 3.31,-1.52 2.16,-1.07 3.85,-1.81 6.21,-2.66 5.02,-1.81 8.23,-3.19 13.77,-4.66 13.11,-3.49 25.07,-5.5 40.08,-5.5zm-170.02 140.21l0 11.02 1.67 18.44c0.73,5.76 2.05,12.32 3.27,17.08 2.8,10.97 6.36,20.72 10.55,30.14 4.84,10.87 11.97,22.17 18.99,31.52 1.38,1.84 2.91,4.08 4.51,5.74 1.18,1.23 1.2,1.37 2.4,2.86 2.58,3.17 9.66,10.38 12.5,12.79 4.05,3.45 5.52,5.42 10.89,9.53 15.28,11.69 27.56,18.64 45.49,25.53l5.49 2c0.57,0.18 1.07,0.29 1.93,0.54 1.53,0.45 2.38,0.8 3.94,1.25 0.97,0.28 2.57,0.69 4,1.11 9.09,2.65 16.43,3.65 25.89,4.79 2.65,0.32 7.41,0.11 9.46,1l17.34 0 17.96 -2.1c11.72,-1.68 26.74,-5.81 37.33,-10.33 3.15,-1.34 5.61,-2.13 8.51,-3.69 0.1,-0.05 0.39,-0.21 0.48,-0.26l14.62 -7.82c0.07,-0.05 0.16,-0.11 0.23,-0.15 3.47,-2.27 5.02,-2.96 8.68,-5.66l1.32 -0.89c0.07,-0.04 0.16,-0.1 0.23,-0.14 0.07,-0.04 0.16,-0.1 0.23,-0.14l7.58 -5.69c0.06,-0.05 0.15,-0.11 0.21,-0.16l3.26 -3c1.55,-1.19 0.98,-0.28 2.69,-2.17l10.41 -9.84c1.1,-1.12 1.74,-1.67 2.57,-2.57 0.53,-0.58 0.59,-0.62 1.02,-1.22l6.94 -8.17c0.61,-0.76 0.61,-0.75 1.12,-1.48 0.78,-1.12 1.2,-1.86 2.16,-2.96l7 -9.98c2.83,-4.78 5.92,-9.52 8.35,-14.9 0.55,-1.21 1.15,-2.37 1.74,-3.38l3.72 -8.48c3.06,-7.6 4.81,-12.6 7.03,-21.01 2.48,-9.44 3.54,-15.46 4.62,-25.31 0.3,-2.76 0.01,-7.18 0.99,-9.46l0 -17.34 -0.33 -1.28c-0.05,-0.35 -0.04,-0.75 -0.06,-1.11 -0.41,-8.06 -1.79,-16.96 -3.4,-24.92l-11.34 -34.28c-0.14,-0.31 -0.4,-0.85 -0.47,-0.99l-1.62 -3.19c-4.79,-9.57 -8.28,-15.81 -14.56,-24.49l-18.75 -21.84c-6.88,-6.62 -11.68,-10.93 -19.58,-16.63l-9.03 -6.12c-8.36,-4.97 -10.6,-6.36 -19.5,-10.66 -9.32,-4.5 -19.62,-7.8 -30.16,-10.54 -5.18,-1.34 -11.4,-2.53 -17.07,-3.29l-18.45 -1.65 -11.02 0c-1.06,0.34 -7.62,0.55 -9.43,0.68 -7.81,0.57 -19.11,2.58 -26.49,4.48 -10.97,2.83 -20.83,6.36 -30.14,10.79 -4.04,1.92 -16.33,8.25 -20.02,11.04 -1.77,1.34 -3.93,2.43 -5.95,4.02 -13.44,10.54 -16.25,12.29 -27.23,24.01 -22.81,24.35 -38.25,57.02 -42.97,90.56l-1.73 18.38z"/>
   <path class="fil0" d="M113.57 136.09l22.21 0c0.01,-1.47 -0.07,-2.34 0.57,-3.69 0.06,-6.36 1.36,-12.79 3.67,-18.59 0.82,-2.06 2.42,-4.96 3.9,-6.79l0.98 -1.18c1.55,-2.06 1.47,-2.13 3.89,-3.87l1.33 -0.87c8.58,-5.31 21.8,-7.15 31.68,-3.97l0.56 0.19c0.09,0.03 0.18,0.06 0.27,0.09 11.94,4.03 19.4,14.5 18.89,29.45 -0.17,4.99 -0.95,10.11 -3.13,13.6 -5.63,9 -16.27,18.99 -23.33,26.84 -14.03,15.61 -18.54,23.05 -18.54,48.88l22.73 -0.01c-0.13,-3.54 -0.04,-7.52 0.3,-10.81 0.32,-3.1 0.74,-6.44 1.76,-9.26l3.76 -8.52c0.99,-1.85 2.63,-3.74 4.06,-5.5l4.62 -4.98c1.99,-2.52 3.06,-3.33 5.23,-5.43 3.58,-3.47 5.82,-5.11 10.02,-9.53l4.1 -4.39c2.42,-3.12 6.48,-7.68 8.17,-11.36 0.54,-1.18 1.26,-2.44 1.75,-3.78 5.55,-15.23 2.85,-35.92 -8.18,-48.22 -16.65,-18.57 -43.51,-22.84 -67.14,-14.21 -9.43,3.44 -19.82,11.18 -25.34,19.74 -7.41,11.51 -8.36,21.99 -8.78,36.15z"/>
   <path class="fil0" d="M156.03 263.23c5.74,0.29 20.75,-0.79 24.93,0.23 0.48,-6.7 -0.92,-21.07 0.32,-26.44 -3.59,-0.16 -23.06,-0.51 -25.11,0.24l-0.13 25.96z"/>
   <path class="fil1" d="M113.57 136.09c1.19,0.73 3.79,0.37 5.19,0.37 3.46,0 15.78,0.31 17.44,-0.26l0.15 -3.79c-0.65,1.34 -0.57,2.22 -0.57,3.69l-22.21 0z"/>
  </g>
 </g>
</svg>
