<?xml version="1.0" encoding="UTF-8"?>
<!DOCTYPE svg PUBLIC "-//W3C//DTD SVG 1.1//EN" "http://www.w3.org/Graphics/SVG/1.1/DTD/svg11.dtd">
<!-- Creator: CorelDRAW -->
<svg xmlns="http://www.w3.org/2000/svg" xml:space="preserve" width="3.31633in" height="3.33334in" version="1.1" style="shape-rendering:geometricPrecision; text-rendering:geometricPrecision; image-rendering:optimizeQuality; fill-rule:evenodd; clip-rule:evenodd"
viewBox="0 0 1597.54 1605.73"
 xmlns:xlink="http://www.w3.org/1999/xlink"
 xmlns:xodm="http://www.corel.com/coreldraw/odm/2003">
 <defs>
  <style type="text/css">
   <![CDATA[
    .fil0 {fill:#020202}
   ]]>
  </style>
 </defs>
 <g id="Layer_x0020_1">
  <metadata id="CorelCorpID_0Corel-Layer"/>
  <path class="fil0" d="M1597.54 590.74l0 6.73 -405.5 -136.15c2.4,-5.46 -0.61,-0.57 3.1,-5.02l103.26 -90.92c-4.01,-8.47 -37.14,-40.34 -45.93,-48.19 -52.94,-47.26 -100.57,-82.75 -166.7,-113.51 -190.87,-88.78 -420.24,-85.95 -605.1,19.72 -77.42,44.26 -125.42,85.73 -181.13,148.19 -164.94,184.95 -218.64,496.24 -79.62,747.15 5.26,9.5 11.42,21.01 17.36,30.16 6.28,9.66 11.77,19.48 17.85,28 24.38,34.2 55.82,73.97 85.25,101.56 14.12,13.24 33.43,32.07 49.9,43.48 4.78,3.32 8.89,7.28 13.72,10.9 112.93,84.49 255.31,134.34 405.43,132.74 157.44,-1.68 302.34,-59.1 413.48,-150.94 53.31,-44.05 94.03,-90.89 132.52,-147.61 24.83,-36.58 47.79,-81.57 64.03,-122.93 9.95,-25.33 14.79,-47.99 32.08,-61.15 44.92,-34.19 104.68,-8.07 113.54,42.25 5.74,32.6 -30.72,108.74 -46.15,138.27l-43.24 76.27c-21.41,33.99 -45.9,62.5 -70.27,91.88 -63.48,76.55 -165.9,153.52 -267.77,200.95 -41.87,19.49 -88.89,36.22 -138.13,48.76 -25.42,6.47 -50.53,11.61 -77.71,15.55l-84.06 8.86 -78.75 0c-5.28,-2.26 -71.54,-8.12 -85.2,-10.33 -26.34,-4.27 -53.02,-9.68 -78.36,-16.72 -51.33,-14.25 -95.43,-30.74 -139.95,-51.52 -26.92,-12.57 -64.92,-34.04 -89.2,-50.17 -50.12,-33.3 -89.88,-64.1 -132.44,-106.74 -54.84,-54.95 -116.96,-136.63 -157.5,-224.4 -19.92,-43.14 -37.72,-90.06 -50.78,-140.8 -9.88,-38.37 -17.67,-80.64 -21.58,-120.61 -1.02,-10.39 -1.43,-37.9 -3.98,-45.15l0 -69.95 8.97 -86.7c15.42,-102.27 61.22,-232.91 119.54,-316.51 34.12,-48.91 64.03,-90.22 107.02,-132.25 135.58,-132.54 298.79,-210.83 492.39,-230.49 9.62,-0.98 36.13,-1.44 43.06,-3.41l66.71 0c6.89,2.36 37.11,3.28 47.13,4.26 44.12,4.31 91.38,13.4 132.93,25.09 98.56,27.72 184.15,70.19 263.91,129.23 4.88,3.61 9.63,8.2 14.64,11.57 43.66,29.31 96.42,92.44 107.9,100.98 4.85,-1.87 3.91,-1.75 8.35,-5.52 3.03,-2.58 3.96,-3.4 6.8,-6.33l92.99 -81.59c3.18,4.97 62.42,305.93 73.57,361.71l10.98 50.13c0.09,-0.24 0.41,0.83 0.65,1.22z"/>
 </g>
</svg>
