<?xml version="1.0" encoding="UTF-8"?>
<!DOCTYPE svg PUBLIC "-//W3C//DTD SVG 1.1//EN" "http://www.w3.org/Graphics/SVG/1.1/DTD/svg11.dtd">
<!-- Creator: CorelDRAW -->
<svg xmlns="http://www.w3.org/2000/svg" xml:space="preserve" width="1.66993in" height="1.61218in" version="1.1" style="shape-rendering:geometricPrecision; text-rendering:geometricPrecision; image-rendering:optimizeQuality; fill-rule:evenodd; clip-rule:evenodd"
viewBox="0 0 817.36 789.09"
 xmlns:xlink="http://www.w3.org/1999/xlink"
 xmlns:xodm="http://www.corel.com/coreldraw/odm/2003">
 <defs>
  <style type="text/css">
   <![CDATA[
    .str0 {stroke:black;stroke-width:1.47;stroke-miterlimit:2.61313}
    .fil0 {fill:#414141}
   ]]>
  </style>
 </defs>
 <g id="Layer_x0020_1">
  <metadata id="CorelCorpID_0Corel-Layer"/>
  <g id="_3035972928032">
   <path class="fil0 str0" d="M406.84 553.19l89.51 -90.64c9.72,-9.37 8.2,-10.97 20.79,-16.52 5.24,13.73 187.36,184.9 201.41,204.14 48.87,66.9 -33.42,159.22 -107.86,108.34 -16.85,-11.51 -201.72,-199.02 -203.85,-205.32zm-102.57 -75.12c8.57,4.77 27.56,25.22 33.91,32.34l-189.37 190.39c-30.22,30.07 -61.68,-2.8 -35.63,-30.67 9.13,-9.77 17.58,-17.72 27.14,-27.23l163.95 -164.83zm110.86 46.44c-11.61,-10.33 -7.02,-15.37 -23.84,-26.48l-10.24 -7.26 69.93 -70.65c10.46,12.61 6.92,13.96 22.37,25.35l10.96 10.05c-3.47,1.95 -1.18,0.2 -4.45,2.93l-56.89 56.81c-2.98,2.94 -1.23,0.97 -3.68,3.73l-4.17 5.53zm-48.75 -19.18c14.75,1.53 20.64,7.11 26.16,15.84l-230.22 230.29c-55.65,48.98 -136.25,-7.22 -112.7,-73.1 9.83,-27.51 89.18,-97.98 111.67,-120.76l116.26 -116.18c11.42,-12.59 27.14,-28.05 39.4,-39.25 7.72,4.74 17.3,14.33 21.48,20.63 -2.91,2.52 -3.34,2.9 -6.29,6.29l-190.47 190.4c-11.54,12.01 -21.5,21.59 -33.3,33.45 -9.27,9.32 -24.58,21.55 -20.24,44.52 3.34,17.69 15.3,29.12 33.5,31 24.13,2.5 33.91,-12.8 44.28,-22.96 62.31,-61.06 140.67,-144.34 200.47,-200.17zm-16.5 -5.74c-8.37,-9.52 -26.22,-24.05 -31.05,-33.54l41.16 -41.03c4.77,-3.94 9.5,-9.25 13.39,-13.8 10.63,-12.45 38.52,-41.22 54.42,-53.5 9.39,13.27 23.04,19.6 31.54,35.74l-109.46 106.15zm88.36 -155.23c9.4,-7.25 23.16,-26.27 41.8,-9.29 17.9,16.31 2.04,35.39 -9.85,42.6 -8.17,-4.88 -28.73,-25.81 -31.95,-33.3zm36.91 -99.09c6.84,22.16 26,47.15 37.91,59.27 19.66,20 37.58,26.76 58.48,37.61l-32.88 34.27c-5.33,5.58 -6.15,5.08 -11.67,10.48l-44.44 44.8c-12.4,-5.91 -13.57,-10.8 -17.24,-24.98 9.21,-10.87 31.83,-28.12 36.18,-42.83 7.22,-24.38 -9.22,-45.77 -27.48,-49.97 -33.81,-7.78 -57.26,35.02 -91.16,63.89l-20.79 -20.88 113.09 -111.67zm-347.35 -101.8c8.22,13.79 221.17,217.29 243.21,245.03l-9.95 13.13c-5.52,4.92 -5.41,3.47 -9.95,10.84l-83.21 -82.79c-8,-7.92 -154.49,-156.94 -163.91,-162.4 -40.46,-23.45 -28.28,-5.67 -48.43,-33.1 -6.81,-9.27 -11.46,-16.66 -17.29,-24.8 -5.84,-8.14 -12.3,-13.87 -16.86,-24.75l23.43 -23.64c8.01,3.82 16.7,11.27 24.86,17.07 58.81,41.8 30.48,19.1 58.09,65.41zm669.24 -2.09c28.92,179.88 -170.26,253.02 -273.03,152.17 -51.67,-50.7 -60.99,-136.04 -25.53,-197.21 44.07,-76.03 147.59,-95.15 176.09,-75.03 -7.59,10.61 -25.63,26.78 -36.04,37.15 -9.68,9.63 -28.79,26.36 -36.56,37.64 -24.49,35.58 -18.89,82.02 8.83,108.18 25.42,23.99 72.93,39.28 109.39,10.04 17.47,-14.01 62.66,-65.31 76.84,-72.95zm-329.29 88.25c-25.12,18.83 -99.96,108.13 -119.84,115.89 -24.15,-26.37 -198.96,-195.02 -206.1,-208.52 -29.45,-55.62 -5.81,-29.37 -52.14,-64.06l-44.61 -31.78c-8.25,4.43 -35.02,33.02 -44.17,41.64 8.62,19.07 33.88,47.39 46.72,66.71 14.36,21.6 8.54,9.06 46.4,30.32 8.54,4.8 14.83,12.43 20.92,18.61 13.3,13.47 24.96,24.93 38.32,38.32 11.91,11.94 145.17,140.95 153.09,156.85 -10.94,5.36 -70.22,67.6 -79.41,76.35l-155.64 155.8c-26.29,26.35 -55.96,55.85 -34.67,108.24 13.45,33.1 53.73,62.62 102.77,48.82 29.18,-8.21 63.72,-49.9 84.67,-71.04l156.28 -157.21c9.92,4.94 140.34,137.91 151.39,149.02 19.87,19.97 55.65,59.34 78.27,72.57 17.43,10.2 39.38,14.58 62.66,10.91 22.41,-3.53 37.42,-14.96 49.26,-27.29 25.2,-26.26 38.09,-68.49 15.5,-108.63 -11.36,-20.18 -130.47,-135.51 -148.56,-153l-74.01 -75.62c3.61,-5.07 12.61,-13.73 17.28,-18.12l55.17 -54.35c0.34,-0.3 0.99,-0.92 1.52,-1.34 113.03,24.32 200.62,-38.49 222.68,-129.61 10.61,-43.84 2.92,-68.43 -7.07,-107.06 -27.42,13.48 -79.89,97.41 -124.13,101.8 -26.26,2.61 -43.67,-6.45 -57.25,-19.33 -30,-28.43 -28.37,-70.76 4.17,-102.87 12.63,-12.47 70.44,-68.61 76.43,-77.94 -21.87,-15.78 -79.46,-15.13 -106.29,-8.81 -76.81,18.09 -134.17,86.72 -136.49,169.44 -0.63,22.55 4.73,35.83 6.86,55.29z"/>
   <path class="fil0 str0" d="M693.59 681.2c6.89,-15.17 -17.18,-31.33 -37.93,-52.1 -17.48,-17.49 -33.54,-32.98 -50.74,-50.61l-75.32 -75.45c-5.44,-5.42 -19.98,-24.51 -28.94,-21.3 -16.16,5.78 22.5,36.88 36.51,50.79 17.5,17.39 33.07,33.06 50.71,50.62l75.38 75.42c7.56,7.73 16.92,22.1 30.32,22.62z"/>
   <path class="fil0 str0" d="M443.93 539.09c-7.39,7.97 10.11,20.04 16.1,26.1 8.88,8.98 15.9,15.8 24.66,24.78l124.86 124.79c5.17,5.01 21.82,26.6 29.48,18.98 8.92,-8.88 -11.85,-23.29 -17.21,-28.78l-168.56 -168.03c-11.22,-4.65 -7.22,-0.11 -9.32,2.16z"/>
  </g>
 </g>
</svg>
