<?xml version="1.0" encoding="UTF-8"?>
<!DOCTYPE svg PUBLIC "-//W3C//DTD SVG 1.1//EN" "http://www.w3.org/Graphics/SVG/1.1/DTD/svg11.dtd">
<!-- Creator: CorelDRAW -->
<svg xmlns="http://www.w3.org/2000/svg" xml:space="preserve" width="3.33326in" height="2.93027in" version="1.1" style="shape-rendering:geometricPrecision; text-rendering:geometricPrecision; image-rendering:optimizeQuality; fill-rule:evenodd; clip-rule:evenodd"
viewBox="0 0 1553.87 1366.01"
 xmlns:xlink="http://www.w3.org/1999/xlink"
 xmlns:xodm="http://www.corel.com/coreldraw/odm/2003">
 <defs>
  <style type="text/css">
   <![CDATA[
    .fil0 {fill:#020205}
    .fil2 {fill:#7D7D7E}
    .fil1 {fill:#FDFDFD}
   ]]>
  </style>
 </defs>
 <g id="Layer_x0020_1">
  <metadata id="CorelCorpID_0Corel-Layer"/>
  <g id="_3036808021552">
   <path class="fil0" d="M197.14 1223.61c2.55,-10.44 61.77,-109.47 72.03,-126.83l507.77 -877.64c7.47,8.05 12.9,20.95 19.03,30.94 5.76,9.39 11.62,19.79 17.79,30.47l144.8 251.37c12.17,21.94 24.44,40.42 36.37,62.51 22.89,42.37 47.9,84.18 72.5,125.61l217.61 376.53c10.67,20.11 69.39,117.53 71.57,127.04l-1159.48 0.01zm-197.14 65.56l0 27.31c0.39,0.61 0.84,1.43 1.08,1.88 26.31,49.05 28.2,31.33 64.31,47.65l1423.1 0c15.45,-7.14 24.97,-4.08 41.48,-16.24 16.04,-11.81 13.55,-16.99 23.9,-34.87l0 -23.63c-6.99,-15.78 -1.26,-16.86 -18.86,-46.04l-70.56 -122.44c-30.54,-55.28 -62.96,-107.41 -93.87,-162.6l-330.98 -572.91c-15.54,-27.18 -30.29,-51.8 -46.47,-80.42 -31,-54.86 -63.23,-108.72 -94.71,-164.21 -16.28,-28.69 -31.5,-52.9 -47.4,-82.22 -26.8,-49.42 -30.56,-43.23 -65.3,-60.43l-19.33 0c-7.86,4.34 -12.65,4.49 -22.22,10.46 -21.7,13.53 -27.38,25.16 -43.19,53.24 -15.72,27.92 -32.12,54.76 -47.49,82.03 -90.39,160.39 -189.16,327.65 -281.53,487.75l-142.04 246.47c-15.57,27.04 -31.85,52.8 -46.74,80.1 -15.39,28.2 -31.77,55.18 -47.28,82.31 -15.83,27.68 -31.19,52.47 -46.58,80.3l-70.79 122.25c-9.93,16.38 -10.82,28.95 -18.54,44.25z"/>
   <path class="fil0" d="M842.46 491.96c-4.45,0 -2.85,0.8 -1.97,-4.57l-5.45 -7.23 -1.66 -3.42c-3.55,-0.2 -2.84,0.77 -2.4,-2.65 -3.96,0.82 -3,1.55 -2.55,-2.54l-3.06 -2 -3.55 -1.53c-4.8,0.76 -3.75,1.91 -3.75,-2.72 -16.86,-16.55 -85.5,-22.9 -109.18,30.43 -13.21,29.74 0.43,111.18 4.92,146.41 12.15,95.46 29.91,194.69 37.57,290.19l51.04 0.06c5.39,-72.59 18.8,-149.09 28.49,-221.13 5.64,-41.91 31.83,-189.63 11.57,-219.3z"/>
   <path class="fil0" d="M761.24 994.03c-35,7.8 -64.59,40.69 -54.63,86.79 7.19,33.29 43.65,63.66 87.42,53.54 90.35,-20.89 60.96,-161.23 -32.79,-140.33z"/>
   <path class="fil1" d="M1488.5 1366.01l65.37 0 0 -51.1c-10.35,17.88 -7.85,23.06 -23.9,34.87 -16.51,12.15 -26.02,9.1 -41.48,16.24z"/>
   <path class="fil1" d="M-0 1366.01l65.39 0c-36.11,-16.33 -38,1.4 -64.31,-47.65 -0.24,-0.45 -0.69,-1.27 -1.08,-1.88l0 49.53z"/>
   <path class="fil2" d="M821.81 468.03l3.55 1.53 3.06 2c-0.46,4.09 -1.41,3.36 2.55,2.54 -0.43,3.42 -1.14,2.45 2.4,2.65l1.66 3.42 5.45 7.23c-0.88,5.36 -2.48,4.57 1.97,4.57l-1.97 -4.57 -5.45 -7.23 -1.66 -3.42c0.63,-4.18 1.62,-3.49 -2.4,-2.65 0.43,-3.76 1.25,-2.89 -2.55,-2.54 0.52,-3.83 1.11,-2.67 -3.06,-2l-3.55 -1.53 -3.75 -2.72c0,4.63 -1.05,3.48 3.75,2.72z"/>
  </g>
 </g>
</svg>
