<?xml version="1.0" encoding="UTF-8"?>
<!DOCTYPE svg PUBLIC "-//W3C//DTD SVG 1.1//EN" "http://www.w3.org/Graphics/SVG/1.1/DTD/svg11.dtd">
<!-- Creator: CorelDRAW -->
<svg xmlns="http://www.w3.org/2000/svg" xml:space="preserve" width="1.66962in" height="1.65386in" version="1.1" style="shape-rendering:geometricPrecision; text-rendering:geometricPrecision; image-rendering:optimizeQuality; fill-rule:evenodd; clip-rule:evenodd"
viewBox="0 0 5926.48 5870.52"
 xmlns:xlink="http://www.w3.org/1999/xlink"
 xmlns:xodm="http://www.corel.com/coreldraw/odm/2003">
 <defs>
  <style type="text/css">
   <![CDATA[
    .str0 {stroke:black;stroke-width:10.65;stroke-miterlimit:2.61313}
    .fil0 {fill:#010101}
   ]]>
  </style>
 </defs>
 <g id="Layer_x0020_1">
  <metadata id="CorelCorpID_0Corel-Layer"/>
  <g id="_3036784916896">
   <path class="fil0 str0" d="M4001.76 277.62c-0.03,-114.66 10.15,-129.73 126.97,-129.73 84.67,0 172.69,-7.53 234.51,20.75 18.99,65.05 13.54,149.38 13.63,225.13 0.18,185.72 99.03,58.74 418.94,246.17 174.36,102.14 145.2,71.49 267.84,-51.97 132.59,-133.47 137.34,-78.33 248.82,32 135.5,134.1 135.53,116.12 -0.56,251 -134.72,133.53 -109.09,104.49 -17.34,275.44 65.43,121.92 77.22,194.85 119.71,330.95 43.52,139.38 199.15,21.21 349.98,89.3 17.22,154.71 20.47,181.57 -2.96,334.28 -60.37,28.06 -129.06,19.68 -210.98,19.62 -198.85,-0.14 -78.57,54.64 -256.02,400.41 -94.58,184.27 -114.62,140.71 31.21,285.55 136.59,135.65 105.61,123.76 -18.66,247.3 -125.73,125.02 -117.02,149.15 -252.76,12.58 -128.33,-129.08 -95.66,-130.87 -265.31,-33.97 -97.36,55.61 -205.55,92.9 -328.5,122.54 -152.19,36.7 -43.94,157.73 -96.8,344.69 -60.52,27.74 -162.15,21.49 -246.47,20.7 -117.04,-1.1 -115.24,-31 -115.24,-141.65 0,-310.58 -15.58,-155.92 -375.18,-328.8 -51.36,-24.69 -80.35,-49.39 -125.9,-72.29 -86.5,-43.48 -122.89,41 -223.23,138.8 -97.26,94.79 -166.22,-16.94 -222.18,-73.97 -94.09,-95.89 -136.3,-114.48 -21.44,-227.48 65.97,-64.91 164.25,-103.69 86.78,-230.51 -237.32,-388.58 -59.9,-464.41 -309.05,-464.54 -181.1,-0.1 -209.41,15.69 -209.41,-128.18 0,-86.29 -8.59,-166.41 19.34,-234.58 55.84,-17.24 134.06,-14.14 202.15,-13.05 206.55,3.31 89.15,-54.64 245.4,-373.67 66.51,-135.79 142.71,-149.47 27.64,-264.93 -51.99,-52.17 -187.28,-134.48 -93.16,-227.64 91.9,-90.96 164.53,-199.35 235.56,-158.46 62.66,36.08 143.47,198.37 240,174.88 17.9,-4.36 158.98,-97.19 280.61,-138.99 259.71,-89.27 242.13,-1.19 242.07,-277.66zm-144.68 97.75c-74.29,28.55 -139.31,40.18 -206.87,70.59 -65.07,29.31 -130.48,61.7 -183.13,92.54 -44.83,-45.31 -139.38,-155.33 -228.86,-168.79 -140.96,-21.21 -206.52,79.81 -265.44,138.46 -55.65,55.38 -159.26,123.44 -150.14,254.42 7.27,104.5 122.18,196.61 170.62,244.35 -23.17,58.75 -62.54,116.91 -89.87,182.59 -28.38,68.21 -44.38,150.13 -75.21,214.32 -300.95,4.99 -368.04,15.39 -367.97,330.07 0.1,328.3 86.04,326.28 373.43,333.98 42.82,203.58 118.35,283.44 156.34,394.19 -45.71,74.46 -157.97,123.1 -167.03,243.19 -9.92,131.63 90.7,202.28 147.27,256.93 56.21,54.28 131.57,159.52 268.73,138.25 78.89,-12.23 213.58,-136.84 224.03,-169.04 57.97,26.22 116.41,62.59 185.77,92.3 60.5,25.91 166.13,50.56 210.63,74.63 1.87,289.74 23.34,369.24 327.6,367.68 302.22,-1.57 335.62,-58.75 335.35,-356.68 20.85,-34.15 155.05,-62.08 197.44,-80.06 70.14,-29.78 131.74,-67.67 195.37,-94.72 71.08,43.85 119.82,158.14 242.45,167.64 135.76,10.52 199.38,-91.81 258.24,-150.97 57.53,-57.83 158.07,-119.99 141.33,-254.65 -13.08,-105.27 -115.29,-179.45 -167.43,-234.5 38.21,-115.57 99.25,-153.44 157.9,-394.94 303.35,-0.01 373.48,-20.11 373.55,-333.23 0.08,-317.53 -76.64,-328.87 -375.7,-331.1 -35.66,-201.29 -136,-321.71 -155.16,-397.05 215.85,-198.19 230.64,-291.53 30.2,-493.81 -310.06,-312.9 -370.97,-52.32 -505.37,22.32 -61.8,-23.16 -119.46,-62.9 -188.23,-91.37 -50.32,-20.84 -165.99,-49.02 -202.7,-72.84 -16.91,-268.47 7.71,-366.82 -337.24,-364.76 -376.62,2.25 -307.54,128.97 -329.87,370.05z"/>
   <path class="fil0 str0" d="M1153.21 2084.76c-120.63,57.6 -369.49,307.72 -428.44,425.45 -133.24,-27.94 -254.33,-144.82 -412.62,-96.76 -142.85,43.39 -168.16,156.52 -227.75,303.67 -53.93,133.14 -126.11,244.47 -37.26,394.06 76.85,129.38 218.65,109.73 337.83,194.67 0.8,94.93 -21.28,195.17 -21.7,300.51 -0.42,109.34 20.1,210.14 22.18,312.06 -107.56,79.6 -253.21,72.57 -332.36,188.86 -92.16,135.37 -21.44,271.87 32.63,398.78 61.29,143.86 79.84,256.73 216.76,302.88 159.98,53.93 285.63,-54.68 421.02,-92.49 136.53,189.15 152.9,202.55 308.14,335 22.21,18.95 34.99,29.7 57.56,46.37l63.72 57.32c-34.24,126.32 -141.76,256.65 -95.39,401.48 46.07,143.93 147.34,165.13 295.18,225.36 132.97,54.18 257.72,133.11 404.46,40.67 91.12,-57.41 134.77,-212.65 189.53,-341.45 441.1,29.49 178.78,29.92 620.82,-0.29 63.52,124.18 83,270.58 182.66,336.51 145.06,95.98 267.74,26.29 403.4,-31.28 135.28,-57.41 255.4,-85.5 301.9,-218.26 55.58,-158.68 -58.46,-280.6 -91.16,-412.74 87.33,-92.4 346.43,-271.53 428.61,-439.03 132.09,32.63 357.47,215.23 534.73,13.28 34.9,-39.74 58.6,-110.04 82.72,-171.4 44.23,-112.44 132.44,-250.26 86.06,-382.87 -45.68,-130.65 -140.74,-158.04 -281.03,-215.64 -37.62,-15.46 -139.94,-63.86 -177.54,-61.25 -74.36,5.18 -90.81,104.06 -15.33,138.17 368.46,166.54 424.51,76.76 223.99,542.57 -72.28,167.89 -184.89,86.52 -322.65,30.2 -256.17,-104.71 -151.43,-52.07 -347.23,143.58 -43.29,43.25 -126.9,147.55 -186.87,194.38 -207.79,162.21 -218.73,120.53 -152.66,279.64 44.52,107.21 146.55,271.7 38.12,346.27 -32.69,22.49 -313.99,138.67 -353,143.23 -127.32,14.88 -149.8,-121.69 -212.22,-274.37 -74.51,-182.26 -69.33,-99.54 -360.73,-86.55 -82.52,3.68 -160.71,3.49 -243.22,-2.82 -70.94,-5.42 -164.37,-33.22 -230.71,-21.06 -138.73,110.92 -78.51,475.77 -361.4,358.19 -349.58,-145.31 -376.3,-97.96 -253.68,-409.68 13.65,-34.7 49.71,-112.02 54.21,-141.56 10.75,-70.43 -35.79,-80.45 -75.62,-109.49 -74.15,-54.07 -161.38,-119.93 -217.01,-176.18 -300.5,-303.83 -140.1,-360.45 -438.84,-238.9 -90.18,36.7 -203.15,114.2 -278.17,19.51 -41.62,-52.56 -92.4,-202.79 -121.12,-271.67 -61.81,-148.24 -30.48,-186.8 94.64,-237.32 68.48,-27.64 247.4,-80.29 262.64,-141.48 5.79,-23.25 -27.57,-288.68 -28.49,-353.48 -6.65,-469.68 165.92,-370.36 -209.09,-519.93 -120.17,-47.93 -193.93,-73.12 -128.37,-232.65 26.23,-63.84 86.83,-228.79 118.94,-273.65 95,-132.7 262.68,13.11 411.53,58.58 77.74,23.76 93.76,-8.92 125.88,-53.05 120.8,-165.87 227.16,-277.3 393.22,-404.35 45.18,-34.56 89.55,-43.8 91.09,-101.16 0.77,-28.83 -35.78,-108.32 -49.83,-141.4 -142.39,-334.89 -67.11,-295.68 231.52,-420.68 126.39,-52.91 188.32,-53.86 242.13,74.23 22.11,52.66 91.06,251.45 122.82,270.87 54.99,33.64 114.16,-8.38 109.14,-70.11 -2.36,-29.12 -42.54,-112.86 -55.68,-145.8 -74.89,-187.74 -159.02,-397.95 -455.59,-270.55 -193.33,83.04 -439.17,124.25 -414.24,378.67 10.03,102.39 84.18,202.77 107.24,306.35z"/>
   <path class="fil0 str0" d="M3176.26 3544.59c-196.36,-53.64 -59.59,128.02 -204.1,418.92 -246.57,496.36 -889.28,584.68 -1271.72,210.77 -456.92,-446.75 -211.23,-1266.87 454.81,-1352.2 117.98,-15.12 199.76,1.61 153.26,-134.42 -217.73,-74.35 -616.3,128.4 -746.81,292.41 -46.12,57.94 -103.73,134.77 -143.52,215.74 -197.56,402.08 -56.29,840.92 171.18,1078.14 91.17,95.07 274.21,210.81 464.28,252.72 846.69,186.63 1259.03,-726.12 1122.62,-982.08z"/>
   <path class="fil0 str0" d="M4125.56 1213.36c308.52,-35.34 545.11,172.14 585.91,433.75 62.44,400.54 -361.97,823.99 -851.75,494.9 -315.15,-211.76 -251.39,-869.4 265.84,-928.65zm-602.7 578.37c26.61,353.31 332.73,638.19 722.17,611.75 354.06,-24.04 647.33,-338.96 615.13,-727.83 -29.33,-354.16 -338.34,-642.42 -729.92,-609.83 -350.74,29.18 -636.68,336.86 -607.39,725.92z"/>
  </g>
 </g>
</svg>
