<?xml version="1.0" encoding="UTF-8"?>
<!DOCTYPE svg PUBLIC "-//W3C//DTD SVG 1.1//EN" "http://www.w3.org/Graphics/SVG/1.1/DTD/svg11.dtd">
<!-- Creator: CorelDRAW -->
<svg xmlns="http://www.w3.org/2000/svg" xml:space="preserve" width="1.66666in" height="1.4006in" version="1.1" style="shape-rendering:geometricPrecision; text-rendering:geometricPrecision; image-rendering:optimizeQuality; fill-rule:evenodd; clip-rule:evenodd"
viewBox="0 0 331.37 278.47"
 xmlns:xlink="http://www.w3.org/1999/xlink"
 xmlns:xodm="http://www.corel.com/coreldraw/odm/2003">
 <defs>
  <style type="text/css">
   <![CDATA[
    .fil0 {fill:#010101}
   ]]>
  </style>
 </defs>
 <g id="Layer_x0020_1">
  <metadata id="CorelCorpID_0Corel-Layer"/>
  <g id="_3036042998544">
   <path class="fil0" d="M148.93 231.42l32.59 -0.14c3.9,10.29 2.09,24.34 7.41,32.64l-46.94 0.68 6.93 -33.18zm-135.63 -39.8l304.54 0.01c-0.51,34.1 8.06,26.57 -82.21,26.7l-207.54 0.05c-20.1,0.24 -14.67,-7.53 -14.78,-26.76zm0 -140.35c0,-7.42 0.06,-14.85 -0.02,-22.27 -0.1,-8.91 -0.13,-14.48 6.16,-15.78l214.7 -0.21c14.97,-0.01 73.65,-2.39 82.7,2.98 3.24,16.83 0.91,61.45 0.92,81.2 0.01,27.03 0.52,54.68 -0.08,81.4l-304.33 0.02 -0.04 -127.34zm-13.3 -36.47l0 201.9c13.31,19.79 19.33,14.54 60.76,14.58 24.47,0.02 48.94,-0.01 73.41,-0.01 1.09,8.56 -1.49,25.92 -6.75,30.42 -7.6,6.5 -27.67,-1.98 -19.81,15.12 13.63,2.31 107.8,2.46 116.49,-1.09l-0.3 -10.37c-10.94,-2.2 -19.15,1.32 -23.54,-8.34 -1.65,-3.63 -4.2,-21.6 -3.84,-25.62 131.99,-3.63 134.19,16.86 134.25,-43.79 0.03,-23.51 2.43,-166.14 -1.85,-176.2 -5.19,-12.2 -16.31,-11.37 -32.45,-11.38 -14.82,-0.01 -29.64,0.04 -44.46,-0l-222.31 -0.02c-19.55,-0.11 -22.09,1.92 -29.61,14.79z"/>
   <path class="fil0" d="M159.61 210.4c10.47,3.91 17.26,-4.72 10.64,-10.84 -5.57,-5.15 -14.21,0.02 -10.64,10.84z"/>
  </g>
 </g>
</svg>
