<?xml version="1.0" encoding="UTF-8"?>
<!DOCTYPE svg PUBLIC "-//W3C//DTD SVG 1.1//EN" "http://www.w3.org/Graphics/SVG/1.1/DTD/svg11.dtd">
<!-- Creator: CorelDRAW -->
<svg xmlns="http://www.w3.org/2000/svg" xml:space="preserve" width="1.66663in" height="1.32301in" version="1.1" style="shape-rendering:geometricPrecision; text-rendering:geometricPrecision; image-rendering:optimizeQuality; fill-rule:evenodd; clip-rule:evenodd"
viewBox="0 0 5707.85 4531.03"
 xmlns:xlink="http://www.w3.org/1999/xlink"
 xmlns:xodm="http://www.corel.com/coreldraw/odm/2003">
 <defs>
  <style type="text/css">
   <![CDATA[
    .fil0 {fill:#00A859}
   ]]>
  </style>
 </defs>
 <g id="Layer_x0020_1">
  <metadata id="CorelCorpID_0Corel-Layer"/>
  <g id="_3036176890224">
   <path class="fil0" d="M2650.35 6.69c-459.14,26.55 -870.65,122.81 -1284.11,290.51 -272.05,110.35 -448.24,220.21 -689.66,370.39l-149.29 107.1c-128.67,96.6 -312.55,260.43 -418.81,372.61 -101.35,107.02 -155.09,243.27 -55.7,380.02 88.45,121.7 243.93,161.37 363.24,96.23 72.76,-39.72 149.79,-119 209.07,-182.73l195.52 -161.54c403.69,-307.49 773.68,-493.22 1271.94,-613.55 740.13,-178.74 1538.75,-81.35 2222.36,246.98 228.37,109.67 338.84,194.38 530.19,325.19l111.58 88.83c194.43,139 364.51,472.98 653.59,259.49 101.95,-75.29 132.78,-255.54 50.02,-383.16 -26.74,-41.22 -88.72,-92.78 -127.85,-128.35 -272.74,-247.88 -396.02,-361.21 -750.76,-563.63 -109.31,-62.39 -231.66,-129.08 -356.57,-179.94 -581.89,-236.92 -1119.37,-362.35 -1774.79,-324.45z"/>
   <path class="fil0" d="M2651.34 1089.01c-431.56,25.98 -940.12,198.88 -1236.91,392.57 -262.76,171.48 -245.34,159.24 -464.06,350.74 -141.93,124.28 -354.26,311.2 -202.29,535.82 77.54,114.6 249.29,164.78 391.29,77.45 45.92,-28.23 241.33,-246.87 349.56,-319.23 93.91,-62.81 124.21,-97.53 246.53,-166.4 615.65,-346.62 1313.41,-406.92 1973.86,-133.28 97.94,40.57 299.79,140 394.79,209.49 17.42,12.74 38.64,27.26 58.13,40.92l26.76 19.75c2.04,1.56 4.62,3.57 6.63,5.14l243.42 211.91c93.43,94.94 199.81,238.18 410.03,150.5 158.25,-66.01 221.06,-269.41 117.31,-422.87l-244.39 -251.86c-544.68,-491.96 -1296,-747.3 -2070.66,-700.65z"/>
   <path class="fil0" d="M2644.86 2173.38c-311.14,42.3 -646.02,179.6 -834.43,341.27 -129.31,110.94 -555.64,421.05 -357.77,699.51 62.24,87.59 150.15,133.4 266.1,121.54 165.24,-16.89 205.37,-155.65 391.13,-321.9 92.25,-82.57 192.27,-142.37 310.09,-190.6 20.82,-8.52 -1.36,0.04 24.62,-9.51 2.74,-1.01 5.69,-2.05 8.44,-3.03l24.85 -8.49c16.77,-5.74 30.77,-10.79 57.55,-19.42 106.98,-34.52 268.5,-52.83 386.23,-43.28 393.62,31.93 623.42,176.03 862.63,467.24 113.53,138.2 252.79,169.45 397.4,86.08 62.64,-36.12 103.47,-95.03 123.36,-167.22 21.6,-78.41 6.7,-170.16 -40.48,-236.69 -348.55,-491.51 -970.17,-803.76 -1619.71,-715.48z"/>
   <path class="fil0" d="M2750.48 4531.03l211.99 0c30.31,-15.76 83.58,-25.12 122.27,-39.41 263.82,-97.43 439.02,-358.75 415.73,-660.34 -7.47,-96.62 -32.28,-170.01 -69.37,-240.99 -33.44,-63.99 -75.1,-127.45 -132.15,-177.24 -115.98,-101.27 -248.66,-172.21 -441.7,-172.97 -337.46,-1.31 -621.45,260.93 -645.32,591.09 -18.98,262.78 125.37,508.36 319,613.71 77.88,42.38 160.05,55.35 219.55,86.15z"/>
  </g>
 </g>
</svg>
