<?xml version="1.0" encoding="UTF-8"?>
<!DOCTYPE svg PUBLIC "-//W3C//DTD SVG 1.1//EN" "http://www.w3.org/Graphics/SVG/1.1/DTD/svg11.dtd">
<!-- Creator: CorelDRAW -->
<svg xmlns="http://www.w3.org/2000/svg" xml:space="preserve" width="1.66663in" height="1.32301in" version="1.1" style="shape-rendering:geometricPrecision; text-rendering:geometricPrecision; image-rendering:optimizeQuality; fill-rule:evenodd; clip-rule:evenodd"
viewBox="0 0 800.86 635.74"
 xmlns:xlink="http://www.w3.org/1999/xlink"
 xmlns:xodm="http://www.corel.com/coreldraw/odm/2003">
 <defs>
  <style type="text/css">
   <![CDATA[
    .fil0 {fill:#ED3237}
   ]]>
  </style>
 </defs>
 <g id="Layer_x0020_1">
  <metadata id="CorelCorpID_0Corel-Layer"/>
  <g id="_3035963828496">
   <path class="fil0" d="M371.87 0.94c-64.42,3.73 -122.16,17.23 -180.17,40.76 -38.17,15.48 -62.89,30.9 -96.77,51.97l-20.95 15.03c-18.05,13.55 -43.85,36.54 -58.76,52.28 -14.22,15.02 -21.76,34.13 -7.82,53.32 12.41,17.08 34.23,22.64 50.97,13.5 10.21,-5.57 21.02,-16.7 29.33,-25.64l27.43 -22.67c56.64,-43.14 108.55,-69.2 178.46,-86.09 103.85,-25.08 215.9,-11.41 311.82,34.65 32.04,15.39 47.54,27.27 74.39,45.63l15.65 12.46c27.28,19.5 51.14,66.36 91.7,36.41 14.3,-10.56 18.63,-35.85 7.02,-53.76 -3.75,-5.78 -12.45,-13.02 -17.94,-18.01 -38.27,-34.78 -55.57,-50.68 -105.34,-79.08 -15.34,-8.75 -32.5,-18.11 -50.03,-25.25 -81.64,-33.24 -157.06,-50.84 -249.02,-45.52z"/>
   <path class="fil0" d="M372.01 152.8c-60.55,3.65 -131.91,27.9 -173.55,55.08 -36.87,24.06 -34.42,22.34 -65.11,49.21 -19.91,17.44 -49.71,43.66 -28.38,75.18 10.88,16.08 34.98,23.12 54.9,10.87 6.44,-3.96 33.86,-34.64 49.05,-44.79 13.18,-8.81 17.43,-13.68 34.59,-23.35 86.38,-48.63 184.28,-57.09 276.95,-18.7 13.74,5.69 42.06,19.64 55.39,29.39 2.44,1.79 5.42,3.83 8.16,5.74l3.76 2.77c0.29,0.22 0.65,0.5 0.93,0.72l34.15 29.73c13.11,13.32 28.04,33.42 57.53,21.12 22.2,-9.26 31.02,-37.8 16.46,-59.33l-34.29 -35.34c-76.42,-69.03 -181.84,-104.85 -290.53,-98.31z"/>
   <path class="fil0" d="M371.1 304.94c-43.66,5.93 -90.64,25.2 -117.08,47.88 -18.14,15.57 -77.96,59.08 -50.2,98.15 8.73,12.29 21.07,18.72 37.34,17.05 23.18,-2.37 28.81,-21.84 54.88,-45.17 12.94,-11.59 26.98,-19.98 43.51,-26.74 2.92,-1.2 -0.19,0.01 3.45,-1.33 0.38,-0.14 0.8,-0.29 1.18,-0.43l3.49 -1.19c2.35,-0.81 4.32,-1.51 8.07,-2.72 15.01,-4.84 37.67,-7.41 54.19,-6.07 55.23,4.48 87.47,24.7 121.03,65.56 15.93,19.39 35.47,23.77 55.76,12.08 8.79,-5.07 14.52,-13.33 17.31,-23.46 3.03,-11 0.94,-23.87 -5.68,-33.21 -48.9,-68.96 -136.12,-112.77 -227.26,-100.39z"/>
   <path class="fil0" d="M385.92 635.74l29.74 0c4.25,-2.21 11.73,-3.52 17.16,-5.53 37.02,-13.67 61.6,-50.34 58.33,-92.65 -1.05,-13.56 -4.53,-23.85 -9.73,-33.81 -4.69,-8.98 -10.54,-17.88 -18.54,-24.87 -16.27,-14.21 -34.89,-24.16 -61.97,-24.27 -47.35,-0.18 -87.19,36.61 -90.54,82.93 -2.66,36.87 17.59,71.33 44.76,86.11 10.93,5.95 22.46,7.77 30.8,12.09z"/>
  </g>
 </g>
</svg>
